<svg xmlns="http://www.w3.org/2000/svg" xmlns:xlink="http://www.w3.org/1999/xlink" viewBox="0 0 148.72 168.35"><defs><style>.cls-1,.cls-13,.cls-7,.cls-8{fill:none;}.cls-2{clip-path:url(#clip-path);}.cls-3{fill:#ffac9d;}.cls-4{fill:#cc887f;}.cls-5{fill:#d68950;}.cls-6{fill:#ffa65b;}.cls-13,.cls-14,.cls-7,.cls-8{stroke:#765e69;stroke-miterlimit:10;}.cls-7{stroke-width:1.78px;}.cls-8{stroke-width:0.97px;}.cls-9{fill:#d35450;}.cls-10{fill:#fc6a5a;}.cls-11{fill:#fff;}.cls-12{fill:#352c38;}.cls-13,.cls-14{stroke-width:1.39px;}.cls-14{fill:#a9c7db;}</style><clipPath id="clip-path" transform="translate(-3.5 -1.33)"><circle class="cls-1" cx="79.44" cy="79.44" r="79.44"/></clipPath></defs><title>profile_icon</title><g id="Camada_2" data-name="Camada 2"><g id="OBJECTS"><g class="cls-2"><path class="cls-3" d="M98.59,114.72c-8.48-4.34-6.17-25.31-6.17-25.31l-12.7.76v-.76l-1.36.38L77,89.41v.76l-12.7-.76s2.31,21-6.17,25.31S-.48,121.23,4.92,169.67H151.8C157.19,121.23,107.07,119.06,98.59,114.72Z" transform="translate(-3.5 -1.33)"/><path class="cls-4" d="M62.52,109.31q15.21-2.13,30.41-4.39a59.83,59.83,0,0,1-.51-15.51l-12.7.76v-.76l-1.36.38L77,89.41v.76l-12.7-.76S65.64,101.59,62.52,109.31Z" transform="translate(-3.5 -1.33)"/><path class="cls-5" d="M101.23,114.35c-4.24-2.17-5.8-8.45-6.3-14.24-3.72,1.32-11.18,2.09-16,2.09-5.75,0-13-1.1-17.12-3-.42,6-1.92,12.82-6.36,15.1-8.54,4.36-57,6.55-51.56,55.32H151.79C157.23,120.9,109.77,118.71,101.23,114.35Z" transform="translate(-3.5 -1.33)"/><path class="cls-6" d="M78.29,125.65c11.66,0,22.12-3.64,29.27-9.39a34.61,34.61,0,0,1-5.9-1.91c-4.24-2.17-5.8-8.45-6.3-14.24-3.73,1.32-11.18,2.09-16,2.09-5.75,0-13-1.1-17.12-3-.42,6-1.92,12.82-6.36,15.1a38.86,38.86,0,0,1-6.67,2.09C56.39,122.09,66.75,125.65,78.29,125.65Z" transform="translate(-3.5 -1.33)"/><polyline class="cls-7" points="20.72 162.57 28.97 155.27 36.76 162.57"/><polyline class="cls-7" points="113.52 162.28 122.93 155.27 130.72 162.57"/><polyline class="cls-7" points="98 162.33 106.88 155.27 114.68 162.57"/><polyline class="cls-7" points="83.05 162.57 91.3 155.27 99.09 162.57"/><polyline class="cls-7" points="66.68 162.42 75.72 155.27 84.15 162.38"/><polyline class="cls-7" points="51.88 162.57 60.13 155.27 67.93 162.57"/><polyline class="cls-7" points="35.65 162.42 44.55 155.27 52.88 162.28"/><polyline class="cls-8" points="20.72 155.38 28.97 148.08 36.76 155.38"/><polyline class="cls-8" points="113.52 155.09 122.93 148.08 130.72 155.38"/><polyline class="cls-8" points="98 155.14 106.88 148.08 114.68 155.38"/><polyline class="cls-8" points="83.05 155.38 91.3 148.08 99.09 155.38"/><polyline class="cls-8" points="66.68 155.23 75.72 148.08 84.15 155.19"/><polyline class="cls-8" points="51.88 155.38 60.13 148.08 67.93 155.38"/><polyline class="cls-8" points="35.65 155.23 44.55 148.08 52.88 155.09"/><path class="cls-6" d="M26.72,152.14A92.85,92.85,0,0,0,23.31,126c-12,7.3-22,20-19.38,43.63H25.3A104.58,104.58,0,0,0,26.72,152.14Z" transform="translate(-3.5 -1.33)"/><path class="cls-6" d="M132.24,125.65a92.62,92.62,0,0,0-3.52,26.49,104.58,104.58,0,0,0,1.42,17.53h21.65C154.47,145.61,144.28,132.89,132.24,125.65Z" transform="translate(-3.5 -1.33)"/><path class="cls-4" d="M53.52,58.71c-2.5-7.27-8.42-5.59-9-5.41s-6.7.91-5.64,8.49,5.78,11.75,10.2,10.53C53.66,71.65,56,66,53.52,58.71Z" transform="translate(-3.5 -1.33)"/><path class="cls-4" d="M103.42,58.71c2.5-7.27,8.42-5.59,9-5.41s6.7.91,5.65,8.49-5.78,11.75-10.2,10.53C103.29,71.65,100.91,66,103.42,58.71Z" transform="translate(-3.5 -1.33)"/><path class="cls-3" d="M47.46,47.69C50.56,15.82,76.4,17.6,78.83,17.84c2.44-.24,28.28-2,31.38,29.85,3.11,32.07-12.12,53-31.38,51.86C59.57,100.7,44.34,79.76,47.46,47.69Z" transform="translate(-3.5 -1.33)"/><path class="cls-9" d="M46.22,25.31s-7,4.22-2,18.75l3,16.41,2.5.47s-1-24.85,7.5-30.48S46.22,25.31,46.22,25.31Z" transform="translate(-3.5 -1.33)"/><path class="cls-10" d="M99.72,27.65s-33.5,18.29-51.5,3.75,1-22,8.5-21.1c0,0-2.5-8,7.5-8.91s8,8.44,23,8.44,22.5.94,21,12.66c0,0,7.5-4.22,10,3.75s-7,34.23-7,34.23l-1,4.22h-2.5V42.19S98.22,45,99.72,27.65Z" transform="translate(-3.5 -1.33)"/><path class="cls-9" d="M118.22,26.24c-2.5-8-10-3.75-10-3.75.86-6.75-1.26-9.92-6.08-11.4a42.45,42.45,0,0,1-7.48,19c3.14-1.39,5.06-2.43,5.06-2.43-1.5,17.35,8,14.54,8,14.54v22.5h2.5l1-4.22S120.72,34.22,118.22,26.24Z" transform="translate(-3.5 -1.33)"/><path class="cls-4" d="M83.29,51.43a71.18,71.18,0,0,1,1.8,8.85c.21,1.48.42,3,.56,4.46s.29,3,.39,4.49l0,.43-.32.18c-2,1.17-4.1,2.29-6.26,3.26,1.78-1.56,3.65-3,5.56-4.34l-.29.62c-.26-1.48-.49-3-.67-4.45s-.35-3-.5-4.47A71.4,71.4,0,0,1,83.29,51.43Z" transform="translate(-3.5 -1.33)"/><path class="cls-11" d="M92,78.83c-6.15,5.61-16.58,5.3-24.47.3" transform="translate(-3.5 -1.33)"/><path class="cls-12" d="M103.2,49.07a43.79,43.79,0,0,0-4.14-2,14.1,14.1,0,0,0-4-1,10.8,10.8,0,0,0-2,0c-.33.07-.65.14-1,.18a9.25,9.25,0,0,0-1,.29,14.6,14.6,0,0,0-2,.8c-.69.3-1.33.73-2.11,1a10.82,10.82,0,0,1,1.32-2.07,8.64,8.64,0,0,1,1.92-1.63,8.07,8.07,0,0,1,2.4-1.05,8.76,8.76,0,0,1,2.65-.19,9.88,9.88,0,0,1,7.91,5.57Z" transform="translate(-3.5 -1.33)"/><path class="cls-12" d="M71,49.07a43.79,43.79,0,0,0-4.14-2,14.1,14.1,0,0,0-4-1,10.8,10.8,0,0,0-2,0c-.33.07-.65.14-1,.18a9.25,9.25,0,0,0-1,.29,14.6,14.6,0,0,0-2,.8c-.69.3-1.33.73-2.11,1a10.82,10.82,0,0,1,1.32-2.07,8.87,8.87,0,0,1,1.92-1.63,8.07,8.07,0,0,1,2.4-1.05,8.76,8.76,0,0,1,2.65-.19A9.88,9.88,0,0,1,71,49.07Z" transform="translate(-3.5 -1.33)"/><path class="cls-13" d="M44.83,52.43l8.69,6.28,21.86.64S81,52,85.7,59.35h22.52l6.77-6" transform="translate(-3.5 -1.33)"/><ellipse class="cls-14" cx="60.61" cy="58.02" rx="11.26" ry="10.56"/><ellipse class="cls-14" cx="93.46" cy="58.02" rx="11.26" ry="10.56"/><path class="cls-12" d="M70,60.62A8.87,8.87,0,0,0,68.06,57,4.62,4.62,0,0,0,64.6,55.5a4.21,4.21,0,0,0-3.45,1.3,7.11,7.11,0,0,0-1.42,3.82,5.68,5.68,0,0,1,.7-4.37,4.39,4.39,0,0,1,1.87-1.51,6.08,6.08,0,0,1,2.33-.39,5.68,5.68,0,0,1,2.31.52,4.93,4.93,0,0,1,1.81,1.51A6.61,6.61,0,0,1,70,60.62Z" transform="translate(-3.5 -1.33)"/><path class="cls-12" d="M98.92,60.18A9,9,0,0,0,97,56.52a4.62,4.62,0,0,0-3.46-1.45,4.19,4.19,0,0,0-3.45,1.29,7,7,0,0,0-1.43,3.82,5.69,5.69,0,0,1,.71-4.37,4.31,4.31,0,0,1,1.86-1.51,6.13,6.13,0,0,1,2.34-.39,5.67,5.67,0,0,1,2.3.52,5.06,5.06,0,0,1,1.82,1.51A6.67,6.67,0,0,1,98.92,60.18Z" transform="translate(-3.5 -1.33)"/></g></g></g></svg>